<?xml version="1.0" encoding="utf-8"?>
<!-- Generator: Adobe Illustrator 27.5.0, SVG Export Plug-In . SVG Version: 6.00 Build 0)  -->
<svg version="1.1" xmlns="http://www.w3.org/2000/svg" xmlns:xlink="http://www.w3.org/1999/xlink" x="0px" y="0px"
	 viewBox="0 0 750 500" style="enable-background:new 0 0 750 500;" xml:space="preserve">
<g id="BACKGROUND">
	<rect width="750" height="500"/>
</g>
<g id="OBJECTS">
	<g>
		<defs>
			<rect id="SVGID_1_" width="750" height="500"/>
		</defs>
		<clipPath id="SVGID_00000000189663146032559540000005040244539942179514_">
			<use xlink:href="#SVGID_1_"  style="overflow:visible;"/>
		</clipPath>
		<g style="opacity:0.3;clip-path:url(#SVGID_00000000189663146032559540000005040244539942179514_);">
			<g>
				
					<rect x="159.875" y="480.375" transform="matrix(-1 -1.224647e-16 1.224647e-16 -1 328 969)" style="fill:#686084;" width="8.25" height="8.25"/>
				
					<rect x="168.125" y="488.625" transform="matrix(-1 -1.224647e-16 1.224647e-16 -1 344.5 985.5)" style="fill:#8B7FB0;" width="8.25" height="8.25"/>
				
					<rect x="176.375" y="496.875" transform="matrix(-1 -1.224647e-16 1.224647e-16 -1 361 1002)" style="fill:#A299C0;" width="8.25" height="8.25"/>
				
					<rect x="184.375" y="505.125" transform="matrix(-1 -1.224647e-16 1.224647e-16 -1 377 1018.5)" style="fill:#B9B2D0;" width="8.25" height="8.25"/>
				
					<rect x="151.625" y="472.125" transform="matrix(-1 -1.224647e-16 1.224647e-16 -1 311.5 952.5)" style="fill:#454058;" width="8.25" height="8.25"/>
				
					<rect x="143.375" y="463.875" transform="matrix(-1 -1.224647e-16 1.224647e-16 -1 295 936)" style="fill:#23202C;" width="8.25" height="8.25"/>
			</g>
			<g>
				
					<rect x="284.875" y="194.875" transform="matrix(-1 -1.224647e-16 1.224647e-16 -1 578 398)" style="fill:#686084;" width="8.25" height="8.25"/>
				
					<rect x="293.125" y="203.125" transform="matrix(-1 -1.224647e-16 1.224647e-16 -1 594.5 414.5)" style="fill:#8B7FB0;" width="8.25" height="8.25"/>
				
					<rect x="301.375" y="211.375" transform="matrix(-1 -1.224647e-16 1.224647e-16 -1 611 431)" style="fill:#A299C0;" width="8.25" height="8.25"/>
				
					<rect x="309.375" y="219.625" transform="matrix(-1 -1.224647e-16 1.224647e-16 -1 627 447.5)" style="fill:#FC4F32;" width="8.25" height="8.25"/>
				
					<rect x="276.625" y="186.625" transform="matrix(-1 -1.224647e-16 1.224647e-16 -1 561.5 381.5)" style="fill:#454058;" width="8.25" height="8.25"/>
				
					<rect x="268.375" y="178.375" transform="matrix(-1 -1.224647e-16 1.224647e-16 -1 545 365)" style="fill:#23202C;" width="8.25" height="8.25"/>
			</g>
			<g>
				
					<rect x="422.375" y="82.125" transform="matrix(-1 -1.224647e-16 1.224647e-16 -1 853 172.5)" style="fill:#686084;" width="8.25" height="8.25"/>
				
					<rect x="430.625" y="90.375" transform="matrix(-1 -1.224647e-16 1.224647e-16 -1 869.5 189)" style="fill:#8B7FB0;" width="8.25" height="8.25"/>
				
					<rect x="438.875" y="98.625" transform="matrix(-1 -1.224647e-16 1.224647e-16 -1 886 205.5)" style="fill:#A299C0;" width="8.25" height="8.25"/>
				
					<rect x="446.875" y="106.875" transform="matrix(-1 -1.224647e-16 1.224647e-16 -1 902 222)" style="fill:#B9B2D0;" width="8.25" height="8.25"/>
				
					<rect x="414.125" y="73.875" transform="matrix(-1 -1.224647e-16 1.224647e-16 -1 836.5 156)" style="fill:#454058;" width="8.25" height="8.25"/>
				
					<rect x="405.875" y="65.625" transform="matrix(-1 -1.224647e-16 1.224647e-16 -1 820 139.5)" style="fill:#23202C;" width="8.25" height="8.25"/>
			</g>
			<g>
				
					<rect x="514.542" y="315.75" transform="matrix(-1 -1.224647e-16 1.224647e-16 -1 1037.3334 639.75)" style="fill:#686084;" width="8.25" height="8.25"/>
				
					<rect x="522.792" y="324" transform="matrix(-1 -1.224647e-16 1.224647e-16 -1 1053.8334 656.25)" style="fill:#8B7FB0;" width="8.25" height="8.25"/>
				
					<rect x="531.042" y="332.25" transform="matrix(-1 -1.224647e-16 1.224647e-16 -1 1070.3334 672.75)" style="fill:#A299C0;" width="8.25" height="8.25"/>
				
					<rect x="539.042" y="340.5" transform="matrix(-1 -1.224647e-16 1.224647e-16 -1 1086.3334 689.25)" style="fill:#B9B2D0;" width="8.25" height="8.25"/>
				
					<rect x="506.292" y="307.5" transform="matrix(-1 -1.224647e-16 1.224647e-16 -1 1020.8334 623.25)" style="fill:#454058;" width="8.25" height="8.25"/>
				
					<rect x="498.042" y="299.25" transform="matrix(-1 -1.224647e-16 1.224647e-16 -1 1004.3334 606.75)" style="fill:#23202C;" width="8.25" height="8.25"/>
			</g>
			<g>
				
					<rect x="394.375" y="213.75" transform="matrix(-1 -1.224647e-16 1.224647e-16 -1 797 435.75)" style="fill:#686084;" width="8.25" height="8.25"/>
				
					<rect x="402.625" y="222" transform="matrix(-1 -1.224647e-16 1.224647e-16 -1 813.5 452.25)" style="fill:#8B7FB0;" width="8.25" height="8.25"/>
				
					<rect x="410.875" y="230.25" transform="matrix(-1 -1.224647e-16 1.224647e-16 -1 830 468.75)" style="fill:#A299C0;" width="8.25" height="8.25"/>
				
					<rect x="418.875" y="238.5" transform="matrix(-1 -1.224647e-16 1.224647e-16 -1 846 485.25)" style="fill:#B9B2D0;" width="8.25" height="8.25"/>
				
					<rect x="386.125" y="205.5" transform="matrix(-1 -1.224647e-16 1.224647e-16 -1 780.5 419.25)" style="fill:#454058;" width="8.25" height="8.25"/>
				
					<rect x="377.875" y="197.25" transform="matrix(-1 -1.224647e-16 1.224647e-16 -1 764 402.75)" style="fill:#23202C;" width="8.25" height="8.25"/>
			</g>
			<g>
				
					<rect x="563.542" y="459.75" transform="matrix(-1 -1.224647e-16 1.224647e-16 -1 1135.3334 927.75)" style="fill:#686084;" width="8.25" height="8.25"/>
				
					<rect x="571.792" y="468" transform="matrix(-1 -1.224647e-16 1.224647e-16 -1 1151.8334 944.25)" style="fill:#8B7FB0;" width="8.25" height="8.25"/>
				
					<rect x="580.042" y="476.25" transform="matrix(-1 -1.224647e-16 1.224647e-16 -1 1168.3334 960.75)" style="fill:#A299C0;" width="8.25" height="8.25"/>
				
					<rect x="588.042" y="484.5" transform="matrix(-1 -1.224647e-16 1.224647e-16 -1 1184.3334 977.25)" style="fill:#B9B2D0;" width="8.25" height="8.25"/>
				
					<rect x="555.292" y="451.5" transform="matrix(-1 -1.224647e-16 1.224647e-16 -1 1118.8334 911.25)" style="fill:#454058;" width="8.25" height="8.25"/>
				
					<rect x="547.042" y="443.25" transform="matrix(-1 -1.224647e-16 1.224647e-16 -1 1102.3334 894.75)" style="fill:#23202C;" width="8.25" height="8.25"/>
			</g>
			<g>
				
					<rect x="471.708" y="474.875" transform="matrix(-1 -1.224647e-16 1.224647e-16 -1 951.6666 958)" style="fill:#686084;" width="8.25" height="8.25"/>
				
					<rect x="479.958" y="483.125" transform="matrix(-1 -1.224647e-16 1.224647e-16 -1 968.1666 974.5)" style="fill:#8B7FB0;" width="8.25" height="8.25"/>
				
					<rect x="488.208" y="491.375" transform="matrix(-1 -1.224647e-16 1.224647e-16 -1 984.6666 991)" style="fill:#A299C0;" width="8.25" height="8.25"/>
				
					<rect x="496.208" y="499.625" transform="matrix(-1 -1.224647e-16 1.224647e-16 -1 1000.6666 1007.5)" style="fill:#B9B2D0;" width="8.25" height="8.25"/>
				
					<rect x="463.458" y="466.625" transform="matrix(-1 -1.224647e-16 1.224647e-16 -1 935.1666 941.5)" style="fill:#454058;" width="8.25" height="8.25"/>
				
					<rect x="455.208" y="458.375" transform="matrix(-1 -1.224647e-16 1.224647e-16 -1 918.6666 925)" style="fill:#23202C;" width="8.25" height="8.25"/>
			</g>
			<g>
				
					<rect x="719" y="430.875" transform="matrix(-1 -1.224647e-16 1.224647e-16 -1 1446.25 870)" style="fill:#686084;" width="8.25" height="8.25"/>
				
					<rect x="727.25" y="439.125" transform="matrix(-1 -1.224647e-16 1.224647e-16 -1 1462.75 886.5)" style="fill:#8B7FB0;" width="8.25" height="8.25"/>
				
					<rect x="735.5" y="447.375" transform="matrix(-1 -1.224647e-16 1.224647e-16 -1 1479.25 903)" style="fill:#A299C0;" width="8.25" height="8.25"/>
				
					<rect x="743.5" y="455.625" transform="matrix(-1 -1.224647e-16 1.224647e-16 -1 1495.25 919.5)" style="fill:#B9B2D0;" width="8.25" height="8.25"/>
				
					<rect x="710.75" y="422.625" transform="matrix(-1 -1.224647e-16 1.224647e-16 -1 1429.75 853.5)" style="fill:#454058;" width="8.25" height="8.25"/>
				
					<rect x="702.5" y="414.375" transform="matrix(-1 -1.224647e-16 1.224647e-16 -1 1413.25 837)" style="fill:#23202C;" width="8.25" height="8.25"/>
			</g>
			<g>
				
					<rect x="640.375" y="436.375" transform="matrix(-1 -1.224647e-16 1.224647e-16 -1 1289 881)" style="fill:#686084;" width="8.25" height="8.25"/>
				
					<rect x="648.625" y="444.625" transform="matrix(-1 -1.224647e-16 1.224647e-16 -1 1305.5 897.5)" style="fill:#8B7FB0;" width="8.25" height="8.25"/>
				
					<rect x="656.875" y="452.875" transform="matrix(-1 -1.224647e-16 1.224647e-16 -1 1322 914)" style="fill:#A299C0;" width="8.25" height="8.25"/>
				
					<rect x="664.875" y="461.125" transform="matrix(-1 -1.224647e-16 1.224647e-16 -1 1338 930.5)" style="fill:#FC4F32;" width="8.25" height="8.25"/>
				
					<rect x="632.125" y="428.125" transform="matrix(-1 -1.224647e-16 1.224647e-16 -1 1272.5 864.5)" style="fill:#454058;" width="8.25" height="8.25"/>
				
					<rect x="623.875" y="419.875" transform="matrix(-1 -1.224647e-16 1.224647e-16 -1 1256 848)" style="fill:#23202C;" width="8.25" height="8.25"/>
			</g>
			<g>
				
					<rect x="-9.458" y="-11.25" transform="matrix(-1 -1.224647e-16 1.224647e-16 -1 -10.6667 -14.25)" style="fill:#686084;" width="8.25" height="8.25"/>
				
					<rect x="-1.208" y="-3" transform="matrix(-1 -1.224647e-16 1.224647e-16 -1 5.8333 2.25)" style="fill:#8B7FB0;" width="8.25" height="8.25"/>
				
					<rect x="7.042" y="5.25" transform="matrix(-1 -1.224647e-16 1.224647e-16 -1 22.3332 18.75)" style="fill:#A299C0;" width="8.25" height="8.25"/>
				
					<rect x="15.042" y="13.5" transform="matrix(-1 -1.224647e-16 1.224647e-16 -1 38.3332 35.25)" style="fill:#B9B2D0;" width="8.25" height="8.25"/>
				
					<rect x="-17.708" y="-19.5" transform="matrix(-1 -1.224647e-16 1.224647e-16 -1 -27.1668 -30.75)" style="fill:#454058;" width="8.25" height="8.25"/>
				
					<rect x="-25.958" y="-27.75" transform="matrix(-1 -1.224647e-16 1.224647e-16 -1 -43.6668 -47.25)" style="fill:#23202C;" width="8.25" height="8.25"/>
			</g>
			<g>
				
					<rect x="612.708" y="9.375" transform="matrix(-1 -1.224647e-16 1.224647e-16 -1 1233.6666 27)" style="fill:#686084;" width="8.25" height="8.25"/>
				
					<rect x="620.958" y="17.625" transform="matrix(-1 -1.224647e-16 1.224647e-16 -1 1250.1666 43.5)" style="fill:#8B7FB0;" width="8.25" height="8.25"/>
				
					<rect x="629.208" y="25.875" transform="matrix(-1 -1.224647e-16 1.224647e-16 -1 1266.6666 60)" style="fill:#A299C0;" width="8.25" height="8.25"/>
				
					<rect x="637.208" y="34.125" transform="matrix(-1 -1.224647e-16 1.224647e-16 -1 1282.6666 76.5)" style="fill:#FC4F32;" width="8.25" height="8.25"/>
				
					<rect x="604.458" y="1.125" transform="matrix(-1 -1.224647e-16 1.224647e-16 -1 1217.1666 10.5)" style="fill:#454058;" width="8.25" height="8.25"/>
				
					<rect x="596.208" y="-7.125" transform="matrix(-1 -1.224647e-16 1.224647e-16 -1 1200.6666 -6)" style="fill:#23202C;" width="8.25" height="8.25"/>
			</g>
			<g>
				
					<rect x="88.208" y="215.5" transform="matrix(-1 -1.224647e-16 1.224647e-16 -1 184.6666 439.25)" style="fill:#686084;" width="8.25" height="8.25"/>
				
					<rect x="96.458" y="223.75" transform="matrix(-1 -1.224647e-16 1.224647e-16 -1 201.1666 455.75)" style="fill:#8B7FB0;" width="8.25" height="8.25"/>
				
					<rect x="104.708" y="232" transform="matrix(-1 -1.224647e-16 1.224647e-16 -1 217.6666 472.25)" style="fill:#A299C0;" width="8.25" height="8.25"/>
				
					<rect x="112.708" y="240.25" transform="matrix(-1 -1.224647e-16 1.224647e-16 -1 233.6666 488.75)" style="fill:#FC4F32;" width="8.25" height="8.25"/>
				
					<rect x="79.958" y="207.25" transform="matrix(-1 -1.224647e-16 1.224647e-16 -1 168.1666 422.75)" style="fill:#454058;" width="8.25" height="8.25"/>
				
					<rect x="71.708" y="199" transform="matrix(-1 -1.224647e-16 1.224647e-16 -1 151.6666 406.25)" style="fill:#23202C;" width="8.25" height="8.25"/>
			</g>
			<g>
				
					<rect x="225.208" y="450.125" transform="matrix(-1 -1.224647e-16 1.224647e-16 -1 458.6666 908.5)" style="fill:#686084;" width="8.25" height="8.25"/>
				
					<rect x="233.458" y="458.375" transform="matrix(-1 -1.224647e-16 1.224647e-16 -1 475.1666 925)" style="fill:#8B7FB0;" width="8.25" height="8.25"/>
				
					<rect x="241.708" y="466.625" transform="matrix(-1 -1.224647e-16 1.224647e-16 -1 491.6666 941.5)" style="fill:#A299C0;" width="8.25" height="8.25"/>
				
					<rect x="249.708" y="474.875" transform="matrix(-1 -1.224647e-16 1.224647e-16 -1 507.6666 958)" style="fill:#B9B2D0;" width="8.25" height="8.25"/>
				
					<rect x="216.958" y="441.875" transform="matrix(-1 -1.224647e-16 1.224647e-16 -1 442.1666 892)" style="fill:#454058;" width="8.25" height="8.25"/>
				
					<rect x="208.708" y="433.625" transform="matrix(-1 -1.224647e-16 1.224647e-16 -1 425.6666 875.5)" style="fill:#23202C;" width="8.25" height="8.25"/>
			</g>
			<g>
				
					<rect x="301.542" y="424" transform="matrix(-1 -1.224647e-16 1.224647e-16 -1 611.3334 856.25)" style="fill:#686084;" width="8.25" height="8.25"/>
				
					<rect x="309.792" y="432.25" transform="matrix(-1 -1.224647e-16 1.224647e-16 -1 627.8334 872.75)" style="fill:#8B7FB0;" width="8.25" height="8.25"/>
				
					<rect x="318.042" y="440.5" transform="matrix(-1 -1.224647e-16 1.224647e-16 -1 644.3334 889.25)" style="fill:#A299C0;" width="8.25" height="8.25"/>
				
					<rect x="326.042" y="448.75" transform="matrix(-1 -1.224647e-16 1.224647e-16 -1 660.3334 905.75)" style="fill:#B9B2D0;" width="8.25" height="8.25"/>
				
					<rect x="293.292" y="415.75" transform="matrix(-1 -1.224647e-16 1.224647e-16 -1 594.8334 839.75)" style="fill:#454058;" width="8.25" height="8.25"/>
				
					<rect x="285.042" y="407.5" transform="matrix(-1 -1.224647e-16 1.224647e-16 -1 578.3334 823.25)" style="fill:#23202C;" width="8.25" height="8.25"/>
			</g>
			<g>
				
					<rect x="613.042" y="238.458" transform="matrix(-1 -1.224647e-16 1.224647e-16 -1 1234.3334 485.1666)" style="fill:#686084;" width="8.25" height="8.25"/>
				
					<rect x="621.292" y="246.708" transform="matrix(-1 -1.224647e-16 1.224647e-16 -1 1250.8334 501.6666)" style="fill:#8B7FB0;" width="8.25" height="8.25"/>
				
					<rect x="629.542" y="254.958" transform="matrix(-1 -1.224647e-16 1.224647e-16 -1 1267.3334 518.1666)" style="fill:#A299C0;" width="8.25" height="8.25"/>
				
					<rect x="637.542" y="263.208" transform="matrix(-1 -1.224647e-16 1.224647e-16 -1 1283.3334 534.6666)" style="fill:#B9B2D0;" width="8.25" height="8.25"/>
				
					<rect x="604.792" y="230.208" transform="matrix(-1 -1.224647e-16 1.224647e-16 -1 1217.8334 468.6666)" style="fill:#454058;" width="8.25" height="8.25"/>
				
					<rect x="596.542" y="221.958" transform="matrix(-1 -1.224647e-16 1.224647e-16 -1 1201.3334 452.1666)" style="fill:#23202C;" width="8.25" height="8.25"/>
			</g>
			<g>
				
					<rect x="221.208" y="5.25" transform="matrix(-1 -1.224647e-16 1.224647e-16 -1 450.6668 18.75)" style="fill:#686084;" width="8.25" height="8.25"/>
				
					<rect x="229.458" y="13.5" transform="matrix(-1 -1.224647e-16 1.224647e-16 -1 467.1668 35.25)" style="fill:#8B7FB0;" width="8.25" height="8.25"/>
				
					<rect x="237.708" y="21.75" transform="matrix(-1 -1.224647e-16 1.224647e-16 -1 483.6668 51.75)" style="fill:#A299C0;" width="8.25" height="8.25"/>
				
					<rect x="245.708" y="30" transform="matrix(-1 -1.224647e-16 1.224647e-16 -1 499.6668 68.25)" style="fill:#B9B2D0;" width="8.25" height="8.25"/>
				
					<rect x="212.958" y="-3" transform="matrix(-1 -1.224647e-16 1.224647e-16 -1 434.1668 2.25)" style="fill:#454058;" width="8.25" height="8.25"/>
				
					<rect x="204.708" y="-11.25" transform="matrix(-1 -1.224647e-16 1.224647e-16 -1 417.6668 -14.25)" style="fill:#23202C;" width="8.25" height="8.25"/>
			</g>
			<g>
				
					<rect x="651.375" y="321.25" transform="matrix(-1 -1.224647e-16 1.224647e-16 -1 1311 650.75)" style="fill:#686084;" width="8.25" height="8.25"/>
				
					<rect x="659.625" y="329.5" transform="matrix(-1 -1.224647e-16 1.224647e-16 -1 1327.5 667.25)" style="fill:#8B7FB0;" width="8.25" height="8.25"/>
				
					<rect x="667.875" y="337.75" transform="matrix(-1 -1.224647e-16 1.224647e-16 -1 1344 683.75)" style="fill:#A299C0;" width="8.25" height="8.25"/>
				
					<rect x="675.875" y="346" transform="matrix(-1 -1.224647e-16 1.224647e-16 -1 1360 700.25)" style="fill:#B9B2D0;" width="8.25" height="8.25"/>
				
					<rect x="643.125" y="313" transform="matrix(-1 -1.224647e-16 1.224647e-16 -1 1294.5 634.25)" style="fill:#454058;" width="8.25" height="8.25"/>
				
					<rect x="634.875" y="304.75" transform="matrix(-1 -1.224647e-16 1.224647e-16 -1 1278 617.75)" style="fill:#23202C;" width="8.25" height="8.25"/>
			</g>
		</g>
		<g style="clip-path:url(#SVGID_00000000189663146032559540000005040244539942179514_);">
			<g>
				
					<rect x="311.958" y="142" transform="matrix(-1 -1.224647e-16 1.224647e-16 -1 634.9166 295)" style="fill:#686084;" width="11" height="11"/>
				
					<rect x="322.958" y="153" transform="matrix(-1 -1.224647e-16 1.224647e-16 -1 656.9166 317)" style="fill:#8B7FB0;" width="11" height="11"/>
				
					<rect x="333.958" y="164" transform="matrix(-1 -1.224647e-16 1.224647e-16 -1 678.9166 339)" style="fill:#A299C0;" width="11" height="11"/>
				
					<rect x="344.625" y="175" transform="matrix(-1 -1.224647e-16 1.224647e-16 -1 700.25 361)" style="fill:#B9B2D0;" width="11" height="11"/>
				
					<rect x="300.958" y="131" transform="matrix(-1 -1.224647e-16 1.224647e-16 -1 612.9166 273)" style="fill:#454058;" width="11" height="11"/>
				
					<rect x="289.958" y="120" transform="matrix(-1 -1.224647e-16 1.224647e-16 -1 590.9166 251)" style="fill:#23202C;" width="11" height="11"/>
			</g>
			<g>
				
					<rect x="306.292" y="73.875" transform="matrix(-1 -1.224647e-16 1.224647e-16 -1 623.5834 158.75)" style="fill:#686084;" width="11" height="11"/>
				
					<rect x="317.292" y="84.875" transform="matrix(-1 -1.224647e-16 1.224647e-16 -1 645.5834 180.75)" style="fill:#8B7FB0;" width="11" height="11"/>
				
					<rect x="328.292" y="95.875" transform="matrix(-1 -1.224647e-16 1.224647e-16 -1 667.5834 202.75)" style="fill:#A299C0;" width="11" height="11"/>
				
					<rect x="338.958" y="106.875" transform="matrix(-1 -1.224647e-16 1.224647e-16 -1 688.9166 224.75)" style="fill:#FC4F32;" width="11" height="11"/>
				
					<rect x="295.292" y="62.875" transform="matrix(-1 -1.224647e-16 1.224647e-16 -1 601.5834 136.75)" style="fill:#454058;" width="11" height="11"/>
				
					<rect x="284.292" y="51.875" transform="matrix(-1 -1.224647e-16 1.224647e-16 -1 579.5834 114.75)" style="fill:#23202C;" width="11" height="11"/>
			</g>
			<g>
				
					<rect x="254.833" y="-17.125" transform="matrix(-1 -1.224647e-16 1.224647e-16 -1 520.6666 -23.25)" style="fill:#686084;" width="11" height="11"/>
				
					<rect x="265.833" y="-6.125" transform="matrix(-1 -1.224647e-16 1.224647e-16 -1 542.6666 -1.25)" style="fill:#8B7FB0;" width="11" height="11"/>
				
					<rect x="276.833" y="4.875" transform="matrix(-1 -1.224647e-16 1.224647e-16 -1 564.6666 20.75)" style="fill:#A299C0;" width="11" height="11"/>
				
					<rect x="287.5" y="15.875" transform="matrix(-1 -1.224647e-16 1.224647e-16 -1 586 42.75)" style="fill:#B9B2D0;" width="11" height="11"/>
				
					<rect x="243.833" y="-28.125" transform="matrix(-1 -1.224647e-16 1.224647e-16 -1 498.6666 -45.25)" style="fill:#454058;" width="11" height="11"/>
				
					<rect x="232.833" y="-39.125" transform="matrix(-1 -1.224647e-16 1.224647e-16 -1 476.6666 -67.25)" style="fill:#23202C;" width="11" height="11"/>
			</g>
			<g>
				
					<rect x="59" y="-3" transform="matrix(-1 -1.224647e-16 1.224647e-16 -1 129 5)" style="fill:#686084;" width="11" height="11"/>
				
					<rect x="70" y="8" transform="matrix(-1 -1.224647e-16 1.224647e-16 -1 151 27)" style="fill:#8B7FB0;" width="11" height="11"/>
				
					<rect x="81" y="19" transform="matrix(-1 -1.224647e-16 1.224647e-16 -1 173 49)" style="fill:#A299C0;" width="11" height="11"/>
				
					<rect x="91.667" y="30" transform="matrix(-1 -1.224647e-16 1.224647e-16 -1 194.3334 71)" style="fill:#FC4F32;" width="11" height="11"/>
				
					<rect x="48" y="-14" transform="matrix(-1 -1.224647e-16 1.224647e-16 -1 107 -17)" style="fill:#454058;" width="11" height="11"/>
				
					<rect x="37" y="-25" transform="matrix(-1 -1.224647e-16 1.224647e-16 -1 85 -39)" style="fill:#23202C;" width="11" height="11"/>
			</g>
			<g>
				
					<rect x="233" y="117.5" transform="matrix(-1 -1.224647e-16 1.224647e-16 -1 477 246)" style="fill:#686084;" width="11" height="11"/>
				
					<rect x="244" y="128.5" transform="matrix(-1 -1.224647e-16 1.224647e-16 -1 499 268)" style="fill:#8B7FB0;" width="11" height="11"/>
				
					<rect x="255" y="139.5" transform="matrix(-1 -1.224647e-16 1.224647e-16 -1 521 290)" style="fill:#A299C0;" width="11" height="11"/>
				
					<rect x="265.667" y="150.5" transform="matrix(-1 -1.224647e-16 1.224647e-16 -1 542.3334 312)" style="fill:#B9B2D0;" width="11" height="11"/>
				
					<rect x="222" y="106.5" transform="matrix(-1 -1.224647e-16 1.224647e-16 -1 455 224)" style="fill:#454058;" width="11" height="11"/>
				
					<rect x="211" y="95.5" transform="matrix(-1 -1.224647e-16 1.224647e-16 -1 433 202)" style="fill:#23202C;" width="11" height="11"/>
			</g>
			<g>
				
					<rect x="211.167" y="41" transform="matrix(-1 -1.224647e-16 1.224647e-16 -1 433.3334 93)" style="fill:#686084;" width="11" height="11"/>
				
					<rect x="222.167" y="52" transform="matrix(-1 -1.224647e-16 1.224647e-16 -1 455.3334 115)" style="fill:#8B7FB0;" width="11" height="11"/>
				
					<rect x="233.167" y="63" transform="matrix(-1 -1.224647e-16 1.224647e-16 -1 477.3334 137)" style="fill:#A299C0;" width="11" height="11"/>
				
					<rect x="243.833" y="74" transform="matrix(-1 -1.224647e-16 1.224647e-16 -1 498.6666 159)" style="fill:#B9B2D0;" width="11" height="11"/>
				
					<rect x="200.167" y="30" transform="matrix(-1 -1.224647e-16 1.224647e-16 -1 411.3334 71)" style="fill:#454058;" width="11" height="11"/>
				
					<rect x="189.167" y="19" transform="matrix(-1 -1.224647e-16 1.224647e-16 -1 389.3334 49)" style="fill:#23202C;" width="11" height="11"/>
			</g>
			<g>
				
					<rect x="167.5" y="109" transform="matrix(-1 -1.224647e-16 1.224647e-16 -1 346 229)" style="fill:#686084;" width="11" height="11"/>
				
					<rect x="178.5" y="120" transform="matrix(-1 -1.224647e-16 1.224647e-16 -1 368 251)" style="fill:#8B7FB0;" width="11" height="11"/>
				
					<rect x="189.5" y="131" transform="matrix(-1 -1.224647e-16 1.224647e-16 -1 390 273)" style="fill:#A299C0;" width="11" height="11"/>
				
					<rect x="200.167" y="142" transform="matrix(-1 -1.224647e-16 1.224647e-16 -1 411.3334 295)" style="fill:#B9B2D0;" width="11" height="11"/>
				
					<rect x="156.5" y="98" transform="matrix(-1 -1.224647e-16 1.224647e-16 -1 324 207)" style="fill:#454058;" width="11" height="11"/>
				
					<rect x="145.5" y="87" transform="matrix(-1 -1.224647e-16 1.224647e-16 -1 302 185)" style="fill:#23202C;" width="11" height="11"/>
			</g>
			<g>
				
					<rect x="156.667" y="164" transform="matrix(-1 -1.224647e-16 1.224647e-16 -1 324.3334 339)" style="fill:#686084;" width="11" height="11"/>
				
					<rect x="167.667" y="175" transform="matrix(-1 -1.224647e-16 1.224647e-16 -1 346.3334 361)" style="fill:#8B7FB0;" width="11" height="11"/>
				
					<rect x="178.667" y="186" transform="matrix(-1 -1.224647e-16 1.224647e-16 -1 368.3334 383)" style="fill:#A299C0;" width="11" height="11"/>
				
					<rect x="189.333" y="197" transform="matrix(-1 -1.224647e-16 1.224647e-16 -1 389.6666 405)" style="fill:#FC4F32;" width="11" height="11"/>
				
					<rect x="145.667" y="153" transform="matrix(-1 -1.224647e-16 1.224647e-16 -1 302.3334 317)" style="fill:#454058;" width="11" height="11"/>
				
					<rect x="134.667" y="142" transform="matrix(-1 -1.224647e-16 1.224647e-16 -1 280.3334 295)" style="fill:#23202C;" width="11" height="11"/>
			</g>
			<g>
				
					<rect x="15" y="145" transform="matrix(-1 -1.224647e-16 1.224647e-16 -1 41 301)" style="fill:#686084;" width="11" height="11"/>
				
					<rect x="26" y="156" transform="matrix(-1 -1.224647e-16 1.224647e-16 -1 63 323)" style="fill:#8B7FB0;" width="11" height="11"/>
				
					<rect x="37" y="167" transform="matrix(-1 -1.224647e-16 1.224647e-16 -1 85 345)" style="fill:#A299C0;" width="11" height="11"/>
				
					<rect x="47.667" y="178" transform="matrix(-1 -1.224647e-16 1.224647e-16 -1 106.3334 367)" style="fill:#B9B2D0;" width="11" height="11"/>
				
					<rect x="4" y="134" transform="matrix(-1 -1.224647e-16 1.224647e-16 -1 19 279)" style="fill:#454058;" width="11" height="11"/>
				
					<rect x="-7" y="123" transform="matrix(-1 -1.224647e-16 1.224647e-16 -1 -3 257)" style="fill:#23202C;" width="11" height="11"/>
			</g>
			<g>
				
					<rect x="80" y="145" transform="matrix(-1 -1.224647e-16 1.224647e-16 -1 171 301)" style="fill:#686084;" width="11" height="11"/>
				
					<rect x="91" y="156" transform="matrix(-1 -1.224647e-16 1.224647e-16 -1 193 323)" style="fill:#8B7FB0;" width="11" height="11"/>
				
					<rect x="102" y="167" transform="matrix(-1 -1.224647e-16 1.224647e-16 -1 215 345)" style="fill:#A299C0;" width="11" height="11"/>
				
					<rect x="112.667" y="178" transform="matrix(-1 -1.224647e-16 1.224647e-16 -1 236.3334 367)" style="fill:#B9B2D0;" width="11" height="11"/>
				
					<rect x="69" y="134" transform="matrix(-1 -1.224647e-16 1.224647e-16 -1 149 279)" style="fill:#454058;" width="11" height="11"/>
				
					<rect x="58" y="123" transform="matrix(-1 -1.224647e-16 1.224647e-16 -1 127 257)" style="fill:#23202C;" width="11" height="11"/>
			</g>
			<g>
				
					<rect x="-12.333" y="46.083" transform="matrix(-1 -1.224647e-16 1.224647e-16 -1 -13.6666 103.1666)" style="fill:#686084;" width="11" height="11"/>
				
					<rect x="-1.333" y="57.083" transform="matrix(-1 -1.224647e-16 1.224647e-16 -1 8.3333 125.1666)" style="fill:#8B7FB0;" width="11" height="11"/>
				
					<rect x="9.667" y="68.083" transform="matrix(-1 -1.224647e-16 1.224647e-16 -1 30.3334 147.1666)" style="fill:#A299C0;" width="11" height="11"/>
				
					<rect x="20.333" y="79.083" transform="matrix(-1 -1.224647e-16 1.224647e-16 -1 51.6666 169.1666)" style="fill:#B9B2D0;" width="11" height="11"/>
				
					<rect x="-23.333" y="35.083" transform="matrix(-1 -1.224647e-16 1.224647e-16 -1 -35.6666 81.1666)" style="fill:#454058;" width="11" height="11"/>
				
					<rect x="-34.333" y="24.083" transform="matrix(-1 -1.224647e-16 1.224647e-16 -1 -57.6666 59.1666)" style="fill:#23202C;" width="11" height="11"/>
			</g>
			<g>
				
					<rect x="58.5" y="62.875" transform="matrix(-1 -1.224647e-16 1.224647e-16 -1 128 136.75)" style="fill:#686084;" width="11" height="11"/>
				
					<rect x="69.5" y="73.875" transform="matrix(-1 -1.224647e-16 1.224647e-16 -1 150 158.75)" style="fill:#8B7FB0;" width="11" height="11"/>
				
					<rect x="80.5" y="84.875" transform="matrix(-1 -1.224647e-16 1.224647e-16 -1 172 180.75)" style="fill:#A299C0;" width="11" height="11"/>
				
					<rect x="91.167" y="95.875" transform="matrix(-1 -1.224647e-16 1.224647e-16 -1 193.3334 202.75)" style="fill:#B9B2D0;" width="11" height="11"/>
				
					<rect x="47.5" y="51.875" transform="matrix(-1 -1.224647e-16 1.224647e-16 -1 106 114.75)" style="fill:#454058;" width="11" height="11"/>
				
					<rect x="36.5" y="40.875" transform="matrix(-1 -1.224647e-16 1.224647e-16 -1 84 92.75)" style="fill:#23202C;" width="11" height="11"/>
			</g>
			<g>
				
					<rect x="140.167" y="24.5" transform="matrix(-1 -1.224647e-16 1.224647e-16 -1 291.3334 60)" style="fill:#686084;" width="11" height="11"/>
				
					<rect x="151.167" y="35.5" transform="matrix(-1 -1.224647e-16 1.224647e-16 -1 313.3334 82)" style="fill:#8B7FB0;" width="11" height="11"/>
				
					<rect x="162.167" y="46.5" transform="matrix(-1 -1.224647e-16 1.224647e-16 -1 335.3334 104)" style="fill:#A299C0;" width="11" height="11"/>
				
					<rect x="172.833" y="57.5" transform="matrix(-1 -1.224647e-16 1.224647e-16 -1 356.6666 126)" style="fill:#B9B2D0;" width="11" height="11"/>
				
					<rect x="129.167" y="13.5" transform="matrix(-1 -1.224647e-16 1.224647e-16 -1 269.3334 38)" style="fill:#454058;" width="11" height="11"/>
				
					<rect x="118.167" y="2.5" transform="matrix(-1 -1.224647e-16 1.224647e-16 -1 247.3334 16)" style="fill:#23202C;" width="11" height="11"/>
			</g>
			<g>
				
					<rect x="348" y="43" transform="matrix(-1 -1.224647e-16 1.224647e-16 -1 707 97)" style="fill:#686084;" width="11" height="11"/>
				
					<rect x="359" y="54" transform="matrix(-1 -1.224647e-16 1.224647e-16 -1 729 119)" style="fill:#8B7FB0;" width="11" height="11"/>
				
					<rect x="370" y="65" transform="matrix(-1 -1.224647e-16 1.224647e-16 -1 751 141)" style="fill:#A299C0;" width="11" height="11"/>
				
					<rect x="380.667" y="76" transform="matrix(-1 -1.224647e-16 1.224647e-16 -1 772.3334 163)" style="fill:#B9B2D0;" width="11" height="11"/>
				
					<rect x="337" y="32" transform="matrix(-1 -1.224647e-16 1.224647e-16 -1 685 75)" style="fill:#454058;" width="11" height="11"/>
				
					<rect x="326" y="21" transform="matrix(-1 -1.224647e-16 1.224647e-16 -1 663 53)" style="fill:#23202C;" width="11" height="11"/>
			</g>
			<g>
				
					<rect x="691.833" y="134" transform="matrix(-1 -1.224647e-16 1.224647e-16 -1 1394.6665 279)" style="fill:#686084;" width="11" height="11"/>
				
					<rect x="702.833" y="145" transform="matrix(-1 -1.224647e-16 1.224647e-16 -1 1416.6665 301)" style="fill:#8B7FB0;" width="11" height="11"/>
				
					<rect x="713.833" y="156" transform="matrix(-1 -1.224647e-16 1.224647e-16 -1 1438.6665 323)" style="fill:#A299C0;" width="11" height="11"/>
				
					<rect x="724.5" y="167" transform="matrix(-1 -1.224647e-16 1.224647e-16 -1 1460 345)" style="fill:#B9B2D0;" width="11" height="11"/>
				
					<rect x="680.833" y="123" transform="matrix(-1 -1.224647e-16 1.224647e-16 -1 1372.6666 257)" style="fill:#454058;" width="11" height="11"/>
				
					<rect x="669.833" y="112" transform="matrix(-1 -1.224647e-16 1.224647e-16 -1 1350.6666 235)" style="fill:#23202C;" width="11" height="11"/>
			</g>
			<g>
				
					<rect x="694.125" y="73.875" transform="matrix(-1 -1.224647e-16 1.224647e-16 -1 1399.25 158.75)" style="fill:#686084;" width="11" height="11"/>
				
					<rect x="705.125" y="84.875" transform="matrix(-1 -1.224647e-16 1.224647e-16 -1 1421.25 180.75)" style="fill:#8B7FB0;" width="11" height="11"/>
				
					<rect x="716.125" y="95.875" transform="matrix(-1 -1.224647e-16 1.224647e-16 -1 1443.25 202.75)" style="fill:#A299C0;" width="11" height="11"/>
				
					<rect x="726.792" y="106.875" transform="matrix(-1 -1.224647e-16 1.224647e-16 -1 1464.5834 224.75)" style="fill:#B9B2D0;" width="11" height="11"/>
				
					<rect x="683.125" y="62.875" transform="matrix(-1 -1.224647e-16 1.224647e-16 -1 1377.25 136.75)" style="fill:#454058;" width="11" height="11"/>
				
					<rect x="672.125" y="51.875" transform="matrix(-1 -1.224647e-16 1.224647e-16 -1 1355.25 114.75)" style="fill:#23202C;" width="11" height="11"/>
			</g>
			<g>
				
					<rect x="642.667" y="-17.125" transform="matrix(-1 -1.224647e-16 1.224647e-16 -1 1296.3334 -23.25)" style="fill:#686084;" width="11" height="11"/>
				
					<rect x="653.667" y="-6.125" transform="matrix(-1 -1.224647e-16 1.224647e-16 -1 1318.3334 -1.25)" style="fill:#8B7FB0;" width="11" height="11"/>
				
					<rect x="664.667" y="4.875" transform="matrix(-1 -1.224647e-16 1.224647e-16 -1 1340.3334 20.75)" style="fill:#A299C0;" width="11" height="11"/>
				
					<rect x="675.333" y="15.875" transform="matrix(-1 -1.224647e-16 1.224647e-16 -1 1361.6666 42.75)" style="fill:#B9B2D0;" width="11" height="11"/>
				
					<rect x="631.667" y="-28.125" transform="matrix(-1 -1.224647e-16 1.224647e-16 -1 1274.3334 -45.25)" style="fill:#454058;" width="11" height="11"/>
				
					<rect x="620.667" y="-39.125" transform="matrix(-1 -1.224647e-16 1.224647e-16 -1 1252.3334 -67.25)" style="fill:#23202C;" width="11" height="11"/>
			</g>
			<g>
				
					<rect x="446.833" y="-3" transform="matrix(-1 -1.224647e-16 1.224647e-16 -1 904.6666 5)" style="fill:#686084;" width="11" height="11"/>
				
					<rect x="457.833" y="8" transform="matrix(-1 -1.224647e-16 1.224647e-16 -1 926.6666 27)" style="fill:#8B7FB0;" width="11" height="11"/>
				
					<rect x="468.833" y="19" transform="matrix(-1 -1.224647e-16 1.224647e-16 -1 948.6666 49)" style="fill:#A299C0;" width="11" height="11"/>
				
					<rect x="479.5" y="30" transform="matrix(-1 -1.224647e-16 1.224647e-16 -1 970 71)" style="fill:#FC4F32;" width="11" height="11"/>
				
					<rect x="435.833" y="-14" transform="matrix(-1 -1.224647e-16 1.224647e-16 -1 882.6666 -17)" style="fill:#454058;" width="11" height="11"/>
				
					<rect x="424.833" y="-25" transform="matrix(-1 -1.224647e-16 1.224647e-16 -1 860.6666 -39)" style="fill:#23202C;" width="11" height="11"/>
			</g>
			<g>
				
					<rect x="620.833" y="117.5" transform="matrix(-1 -1.224647e-16 1.224647e-16 -1 1252.6666 246)" style="fill:#686084;" width="11" height="11"/>
				
					<rect x="631.833" y="128.5" transform="matrix(-1 -1.224647e-16 1.224647e-16 -1 1274.6666 268)" style="fill:#8B7FB0;" width="11" height="11"/>
				
					<rect x="642.833" y="139.5" transform="matrix(-1 -1.224647e-16 1.224647e-16 -1 1296.6666 290)" style="fill:#A299C0;" width="11" height="11"/>
				
					<rect x="653.5" y="150.5" transform="matrix(-1 -1.224647e-16 1.224647e-16 -1 1318 312)" style="fill:#FC4F32;" width="11" height="11"/>
				
					<rect x="609.833" y="106.5" transform="matrix(-1 -1.224647e-16 1.224647e-16 -1 1230.6666 224)" style="fill:#454058;" width="11" height="11"/>
				
					<rect x="598.833" y="95.5" transform="matrix(-1 -1.224647e-16 1.224647e-16 -1 1208.6666 202)" style="fill:#23202C;" width="11" height="11"/>
			</g>
			<g>
				
					<rect x="599" y="41" transform="matrix(-1 -1.224647e-16 1.224647e-16 -1 1209 93)" style="fill:#686084;" width="11" height="11"/>
				
					<rect x="610" y="52" transform="matrix(-1 -1.224647e-16 1.224647e-16 -1 1231 115)" style="fill:#8B7FB0;" width="11" height="11"/>
				
					<rect x="621" y="63" transform="matrix(-1 -1.224647e-16 1.224647e-16 -1 1253 137)" style="fill:#A299C0;" width="11" height="11"/>
				
					<rect x="631.667" y="74" transform="matrix(-1 -1.224647e-16 1.224647e-16 -1 1274.3334 159)" style="fill:#B9B2D0;" width="11" height="11"/>
				
					<rect x="588" y="30" transform="matrix(-1 -1.224647e-16 1.224647e-16 -1 1187 71)" style="fill:#454058;" width="11" height="11"/>
				
					<rect x="577" y="19" transform="matrix(-1 -1.224647e-16 1.224647e-16 -1 1165 49)" style="fill:#23202C;" width="11" height="11"/>
			</g>
			<g>
				
					<rect x="555.333" y="109" transform="matrix(-1 -1.224647e-16 1.224647e-16 -1 1121.6666 229)" style="fill:#686084;" width="11" height="11"/>
				
					<rect x="566.333" y="120" transform="matrix(-1 -1.224647e-16 1.224647e-16 -1 1143.6666 251)" style="fill:#8B7FB0;" width="11" height="11"/>
				
					<rect x="577.333" y="131" transform="matrix(-1 -1.224647e-16 1.224647e-16 -1 1165.6666 273)" style="fill:#A299C0;" width="11" height="11"/>
				
					<rect x="588" y="142" transform="matrix(-1 -1.224647e-16 1.224647e-16 -1 1187 295)" style="fill:#B9B2D0;" width="11" height="11"/>
				
					<rect x="544.333" y="98" transform="matrix(-1 -1.224647e-16 1.224647e-16 -1 1099.6666 207)" style="fill:#454058;" width="11" height="11"/>
				
					<rect x="533.333" y="87" transform="matrix(-1 -1.224647e-16 1.224647e-16 -1 1077.6666 185)" style="fill:#23202C;" width="11" height="11"/>
			</g>
			<g>
				
					<rect x="539" y="150.5" transform="matrix(-1 -1.224647e-16 1.224647e-16 -1 1089 312)" style="fill:#686084;" width="11" height="11"/>
				
					<rect x="550" y="161.5" transform="matrix(-1 -1.224647e-16 1.224647e-16 -1 1111 334)" style="fill:#8B7FB0;" width="11" height="11"/>
				
					<rect x="561" y="172.5" transform="matrix(-1 -1.224647e-16 1.224647e-16 -1 1133 356)" style="fill:#A299C0;" width="11" height="11"/>
				
					<rect x="571.667" y="183.5" transform="matrix(-1 -1.224647e-16 1.224647e-16 -1 1154.3334 378)" style="fill:#B9B2D0;" width="11" height="11"/>
				
					<rect x="528" y="139.5" transform="matrix(-1 -1.224647e-16 1.224647e-16 -1 1067 290)" style="fill:#454058;" width="11" height="11"/>
				
					<rect x="517" y="128.5" transform="matrix(-1 -1.224647e-16 1.224647e-16 -1 1045 268)" style="fill:#23202C;" width="11" height="11"/>
			</g>
			<g>
				
					<rect x="402.833" y="145" transform="matrix(-1 -1.224647e-16 1.224647e-16 -1 816.6666 301)" style="fill:#686084;" width="11" height="11"/>
				
					<rect x="413.833" y="156" transform="matrix(-1 -1.224647e-16 1.224647e-16 -1 838.6666 323)" style="fill:#8B7FB0;" width="11" height="11"/>
				
					<rect x="424.833" y="167" transform="matrix(-1 -1.224647e-16 1.224647e-16 -1 860.6666 345)" style="fill:#A299C0;" width="11" height="11"/>
				
					<rect x="435.5" y="178" transform="matrix(-1 -1.224647e-16 1.224647e-16 -1 882 367)" style="fill:#B9B2D0;" width="11" height="11"/>
				
					<rect x="391.833" y="134" transform="matrix(-1 -1.224647e-16 1.224647e-16 -1 794.6666 279)" style="fill:#454058;" width="11" height="11"/>
				
					<rect x="380.833" y="123" transform="matrix(-1 -1.224647e-16 1.224647e-16 -1 772.6666 257)" style="fill:#23202C;" width="11" height="11"/>
			</g>
			<g>
				
					<rect x="484.5" y="158.5" transform="matrix(-1 -1.224647e-16 1.224647e-16 -1 980 328)" style="fill:#686084;" width="11" height="11"/>
				
					<rect x="495.5" y="169.5" transform="matrix(-1 -1.224647e-16 1.224647e-16 -1 1002 350)" style="fill:#8B7FB0;" width="11" height="11"/>
				
					<rect x="506.5" y="180.5" transform="matrix(-1 -1.224647e-16 1.224647e-16 -1 1024 372)" style="fill:#A299C0;" width="11" height="11"/>
				
					<rect x="517.167" y="191.5" transform="matrix(-1 -1.224647e-16 1.224647e-16 -1 1045.3334 394)" style="fill:#FC4F32;" width="11" height="11"/>
				
					<rect x="473.5" y="147.5" transform="matrix(-1 -1.224647e-16 1.224647e-16 -1 958 306)" style="fill:#454058;" width="11" height="11"/>
				
					<rect x="462.5" y="136.5" transform="matrix(-1 -1.224647e-16 1.224647e-16 -1 936 284)" style="fill:#23202C;" width="11" height="11"/>
			</g>
			<g>
				
					<rect x="353.667" y="-3" transform="matrix(-1 -1.224647e-16 1.224647e-16 -1 718.3334 5)" style="fill:#686084;" width="11" height="11"/>
				
					<rect x="364.667" y="8" transform="matrix(-1 -1.224647e-16 1.224647e-16 -1 740.3334 27)" style="fill:#8B7FB0;" width="11" height="11"/>
				
					<rect x="375.667" y="19" transform="matrix(-1 -1.224647e-16 1.224647e-16 -1 762.3334 49)" style="fill:#A299C0;" width="11" height="11"/>
				
					<rect x="386.333" y="30" transform="matrix(-1 -1.224647e-16 1.224647e-16 -1 783.6666 71)" style="fill:#B9B2D0;" width="11" height="11"/>
				
					<rect x="342.667" y="-14" transform="matrix(-1 -1.224647e-16 1.224647e-16 -1 696.3334 -17)" style="fill:#454058;" width="11" height="11"/>
				
					<rect x="331.667" y="-25" transform="matrix(-1 -1.224647e-16 1.224647e-16 -1 674.3334 -39)" style="fill:#23202C;" width="11" height="11"/>
			</g>
			<g>
				
					<rect x="446.333" y="62.875" transform="matrix(-1 -1.224647e-16 1.224647e-16 -1 903.6666 136.75)" style="fill:#686084;" width="11" height="11"/>
				
					<rect x="457.333" y="73.875" transform="matrix(-1 -1.224647e-16 1.224647e-16 -1 925.6666 158.75)" style="fill:#8B7FB0;" width="11" height="11"/>
				
					<rect x="468.333" y="84.875" transform="matrix(-1 -1.224647e-16 1.224647e-16 -1 947.6666 180.75)" style="fill:#A299C0;" width="11" height="11"/>
				
					<rect x="479" y="95.875" transform="matrix(-1 -1.224647e-16 1.224647e-16 -1 969 202.75)" style="fill:#B9B2D0;" width="11" height="11"/>
				
					<rect x="435.333" y="51.875" transform="matrix(-1 -1.224647e-16 1.224647e-16 -1 881.6666 114.75)" style="fill:#454058;" width="11" height="11"/>
				
					<rect x="424.333" y="40.875" transform="matrix(-1 -1.224647e-16 1.224647e-16 -1 859.6666 92.75)" style="fill:#23202C;" width="11" height="11"/>
			</g>
			<g>
				
					<rect x="528" y="24.5" transform="matrix(-1 -1.224647e-16 1.224647e-16 -1 1067 60)" style="fill:#686084;" width="11" height="11"/>
				
					<rect x="539" y="35.5" transform="matrix(-1 -1.224647e-16 1.224647e-16 -1 1089 82)" style="fill:#8B7FB0;" width="11" height="11"/>
				
					<rect x="550" y="46.5" transform="matrix(-1 -1.224647e-16 1.224647e-16 -1 1111 104)" style="fill:#A299C0;" width="11" height="11"/>
				
					<rect x="560.667" y="57.5" transform="matrix(-1 -1.224647e-16 1.224647e-16 -1 1132.3334 126)" style="fill:#B9B2D0;" width="11" height="11"/>
				
					<rect x="517" y="13.5" transform="matrix(-1 -1.224647e-16 1.224647e-16 -1 1045 38)" style="fill:#454058;" width="11" height="11"/>
				
					<rect x="506" y="2.5" transform="matrix(-1 -1.224647e-16 1.224647e-16 -1 1023 16)" style="fill:#23202C;" width="11" height="11"/>
			</g>
			<g>
				
					<rect x="735.833" y="43" transform="matrix(-1 -1.224647e-16 1.224647e-16 -1 1482.6665 97)" style="fill:#686084;" width="11" height="11"/>
				
					<rect x="746.833" y="54" transform="matrix(-1 -1.224647e-16 1.224647e-16 -1 1504.6665 119)" style="fill:#8B7FB0;" width="11" height="11"/>
				
					<rect x="757.833" y="65" transform="matrix(-1 -1.224647e-16 1.224647e-16 -1 1526.6665 141)" style="fill:#A299C0;" width="11" height="11"/>
				
					<rect x="768.5" y="76" transform="matrix(-1 -1.224647e-16 1.224647e-16 -1 1548 163)" style="fill:#B9B2D0;" width="11" height="11"/>
				
					<rect x="724.833" y="32" transform="matrix(-1 -1.224647e-16 1.224647e-16 -1 1460.6665 75)" style="fill:#454058;" width="11" height="11"/>
				
					<rect x="713.833" y="21" transform="matrix(-1 -1.224647e-16 1.224647e-16 -1 1438.6665 53)" style="fill:#23202C;" width="11" height="11"/>
			</g>
			<g>
				
					<rect x="304" y="367.625" transform="matrix(-1 -1.224647e-16 1.224647e-16 -1 619 746.25)" style="fill:#686084;" width="11" height="11"/>
				
					<rect x="315" y="378.625" transform="matrix(-1 -1.224647e-16 1.224647e-16 -1 641 768.25)" style="fill:#8B7FB0;" width="11" height="11"/>
				
					<rect x="326" y="389.625" transform="matrix(-1 -1.224647e-16 1.224647e-16 -1 663 790.25)" style="fill:#A299C0;" width="11" height="11"/>
				
					<rect x="336.667" y="400.625" transform="matrix(-1 -1.224647e-16 1.224647e-16 -1 684.3334 812.25)" style="fill:#B9B2D0;" width="11" height="11"/>
				
					<rect x="293" y="356.625" transform="matrix(-1 -1.224647e-16 1.224647e-16 -1 597 724.25)" style="fill:#454058;" width="11" height="11"/>
				
					<rect x="282" y="345.625" transform="matrix(-1 -1.224647e-16 1.224647e-16 -1 575 702.25)" style="fill:#23202C;" width="11" height="11"/>
			</g>
			<g>
				
					<rect x="306.292" y="307.5" transform="matrix(-1 -1.224647e-16 1.224647e-16 -1 623.5834 626)" style="fill:#686084;" width="11" height="11"/>
				
					<rect x="317.292" y="318.5" transform="matrix(-1 -1.224647e-16 1.224647e-16 -1 645.5834 648)" style="fill:#8B7FB0;" width="11" height="11"/>
				
					<rect x="328.292" y="329.5" transform="matrix(-1 -1.224647e-16 1.224647e-16 -1 667.5834 670)" style="fill:#A299C0;" width="11" height="11"/>
				
					<rect x="338.958" y="340.5" transform="matrix(-1 -1.224647e-16 1.224647e-16 -1 688.9166 692)" style="fill:#B9B2D0;" width="11" height="11"/>
				
					<rect x="295.292" y="296.5" transform="matrix(-1 -1.224647e-16 1.224647e-16 -1 601.5834 604)" style="fill:#454058;" width="11" height="11"/>
				
					<rect x="284.292" y="285.5" transform="matrix(-1 -1.224647e-16 1.224647e-16 -1 579.5834 582)" style="fill:#23202C;" width="11" height="11"/>
			</g>
			<g>
				
					<rect x="408.5" y="450.125" transform="matrix(-1 -1.224647e-16 1.224647e-16 -1 828 911.25)" style="fill:#686084;" width="11" height="11"/>
				
					<rect x="419.5" y="461.125" transform="matrix(-1 -1.224647e-16 1.224647e-16 -1 850 933.25)" style="fill:#8B7FB0;" width="11" height="11"/>
				
					<rect x="430.5" y="472.125" transform="matrix(-1 -1.224647e-16 1.224647e-16 -1 872 955.25)" style="fill:#A299C0;" width="11" height="11"/>
				
					<rect x="441.167" y="483.125" transform="matrix(-1 -1.224647e-16 1.224647e-16 -1 893.3334 977.25)" style="fill:#FC4F32;" width="11" height="11"/>
				
					<rect x="397.5" y="439.125" transform="matrix(-1 -1.224647e-16 1.224647e-16 -1 806 889.25)" style="fill:#454058;" width="11" height="11"/>
				
					<rect x="386.5" y="428.125" transform="matrix(-1 -1.224647e-16 1.224647e-16 -1 784 867.25)" style="fill:#23202C;" width="11" height="11"/>
			</g>
			<g>
				
					<rect x="266" y="444.625" transform="matrix(-1 -1.224647e-16 1.224647e-16 -1 543 900.25)" style="fill:#686084;" width="11" height="11"/>
				
					<rect x="277" y="455.625" transform="matrix(-1 -1.224647e-16 1.224647e-16 -1 565 922.25)" style="fill:#8B7FB0;" width="11" height="11"/>
				
					<rect x="288" y="466.625" transform="matrix(-1 -1.224647e-16 1.224647e-16 -1 587 944.25)" style="fill:#A299C0;" width="11" height="11"/>
				
					<rect x="298.667" y="477.625" transform="matrix(-1 -1.224647e-16 1.224647e-16 -1 608.3334 966.25)" style="fill:#B9B2D0;" width="11" height="11"/>
				
					<rect x="255" y="433.625" transform="matrix(-1 -1.224647e-16 1.224647e-16 -1 521 878.25)" style="fill:#454058;" width="11" height="11"/>
				
					<rect x="244" y="422.625" transform="matrix(-1 -1.224647e-16 1.224647e-16 -1 499 856.25)" style="fill:#23202C;" width="11" height="11"/>
			</g>
			<g>
				
					<rect x="31.667" y="466.625" transform="matrix(-1 -1.224647e-16 1.224647e-16 -1 74.3334 944.25)" style="fill:#686084;" width="11" height="11"/>
				
					<rect x="42.667" y="477.625" transform="matrix(-1 -1.224647e-16 1.224647e-16 -1 96.3334 966.25)" style="fill:#8B7FB0;" width="11" height="11"/>
				
					<rect x="53.667" y="488.625" transform="matrix(-1 -1.224647e-16 1.224647e-16 -1 118.3334 988.25)" style="fill:#A299C0;" width="11" height="11"/>
				
					<rect x="64.333" y="499.625" transform="matrix(-1 -1.224647e-16 1.224647e-16 -1 139.6666 1010.25)" style="fill:#B9B2D0;" width="11" height="11"/>
				
					<rect x="20.667" y="455.625" transform="matrix(-1 -1.224647e-16 1.224647e-16 -1 52.3334 922.25)" style="fill:#454058;" width="11" height="11"/>
				
					<rect x="9.667" y="444.625" transform="matrix(-1 -1.224647e-16 1.224647e-16 -1 30.3334 900.25)" style="fill:#23202C;" width="11" height="11"/>
			</g>
			<g>
				
					<rect x="123.833" y="483.125" transform="matrix(-1 -1.224647e-16 1.224647e-16 -1 258.6666 977.25)" style="fill:#686084;" width="11" height="11"/>
				
					<rect x="134.833" y="494.125" transform="matrix(-1 -1.224647e-16 1.224647e-16 -1 280.6666 999.25)" style="fill:#8B7FB0;" width="11" height="11"/>
				
					<rect x="145.833" y="505.125" transform="matrix(-1 -1.224647e-16 1.224647e-16 -1 302.6666 1021.25)" style="fill:#A299C0;" width="11" height="11"/>
				
					<rect x="156.5" y="516.125" transform="matrix(-1 -1.224647e-16 1.224647e-16 -1 324 1043.25)" style="fill:#B9B2D0;" width="11" height="11"/>
				
					<rect x="112.833" y="472.125" transform="matrix(-1 -1.224647e-16 1.224647e-16 -1 236.6666 955.25)" style="fill:#454058;" width="11" height="11"/>
				
					<rect x="101.833" y="461.125" transform="matrix(-1 -1.224647e-16 1.224647e-16 -1 214.6666 933.25)" style="fill:#23202C;" width="11" height="11"/>
			</g>
			<g>
				
					<rect x="216.833" y="488.625" transform="matrix(-1 -1.224647e-16 1.224647e-16 -1 444.6666 988.25)" style="fill:#686084;" width="11" height="11"/>
				
					<rect x="227.833" y="499.625" transform="matrix(-1 -1.224647e-16 1.224647e-16 -1 466.6666 1010.25)" style="fill:#8B7FB0;" width="11" height="11"/>
				
					<rect x="238.833" y="510.625" transform="matrix(-1 -1.224647e-16 1.224647e-16 -1 488.6666 1032.25)" style="fill:#A299C0;" width="11" height="11"/>
				
					<rect x="249.5" y="521.625" transform="matrix(-1 -1.224647e-16 1.224647e-16 -1 510 1054.25)" style="fill:#B9B2D0;" width="11" height="11"/>
				
					<rect x="205.833" y="477.625" transform="matrix(-1 -1.224647e-16 1.224647e-16 -1 422.6666 966.25)" style="fill:#454058;" width="11" height="11"/>
				
					<rect x="194.833" y="466.625" transform="matrix(-1 -1.224647e-16 1.224647e-16 -1 400.6666 944.25)" style="fill:#23202C;" width="11" height="11"/>
			</g>
			<g>
				
					<rect x="369.833" y="483.125" transform="matrix(-1 -1.224647e-16 1.224647e-16 -1 750.6666 977.25)" style="fill:#686084;" width="11" height="11"/>
				
					<rect x="380.833" y="494.125" transform="matrix(-1 -1.224647e-16 1.224647e-16 -1 772.6666 999.25)" style="fill:#8B7FB0;" width="11" height="11"/>
				
					<rect x="391.833" y="505.125" transform="matrix(-1 -1.224647e-16 1.224647e-16 -1 794.6666 1021.25)" style="fill:#A299C0;" width="11" height="11"/>
				
					<rect x="402.5" y="516.125" transform="matrix(-1 -1.224647e-16 1.224647e-16 -1 816 1043.25)" style="fill:#B9B2D0;" width="11" height="11"/>
				
					<rect x="358.833" y="472.125" transform="matrix(-1 -1.224647e-16 1.224647e-16 -1 728.6666 955.25)" style="fill:#454058;" width="11" height="11"/>
				
					<rect x="347.833" y="461.125" transform="matrix(-1 -1.224647e-16 1.224647e-16 -1 706.6666 933.25)" style="fill:#23202C;" width="11" height="11"/>
			</g>
			<g>
				
					<rect x="703" y="461.125" transform="matrix(-1 -1.224647e-16 1.224647e-16 -1 1417 933.25)" style="fill:#686084;" width="11" height="11"/>
				
					<rect x="714" y="472.125" transform="matrix(-1 -1.224647e-16 1.224647e-16 -1 1439 955.25)" style="fill:#8B7FB0;" width="11" height="11"/>
				
					<rect x="725" y="483.125" transform="matrix(-1 -1.224647e-16 1.224647e-16 -1 1461 977.25)" style="fill:#A299C0;" width="11" height="11"/>
				
					<rect x="735.667" y="494.125" transform="matrix(-1 -1.224647e-16 1.224647e-16 -1 1482.3334 999.25)" style="fill:#B9B2D0;" width="11" height="11"/>
				
					<rect x="692" y="450.125" transform="matrix(-1 -1.224647e-16 1.224647e-16 -1 1395 911.25)" style="fill:#454058;" width="11" height="11"/>
				
					<rect x="681" y="439.125" transform="matrix(-1 -1.224647e-16 1.224647e-16 -1 1373 889.25)" style="fill:#23202C;" width="11" height="11"/>
			</g>
			<g>
				
					<rect x="522.667" y="477.625" transform="matrix(-1 -1.224647e-16 1.224647e-16 -1 1056.3334 966.25)" style="fill:#686084;" width="11" height="11"/>
				
					<rect x="533.667" y="488.625" transform="matrix(-1 -1.224647e-16 1.224647e-16 -1 1078.3334 988.25)" style="fill:#8B7FB0;" width="11" height="11"/>
				
					<rect x="544.667" y="499.625" transform="matrix(-1 -1.224647e-16 1.224647e-16 -1 1100.3334 1010.25)" style="fill:#A299C0;" width="11" height="11"/>
				
					<rect x="555.333" y="510.625" transform="matrix(-1 -1.224647e-16 1.224647e-16 -1 1121.6666 1032.25)" style="fill:#B9B2D0;" width="11" height="11"/>
				
					<rect x="511.667" y="466.625" transform="matrix(-1 -1.224647e-16 1.224647e-16 -1 1034.3334 944.25)" style="fill:#454058;" width="11" height="11"/>
				
					<rect x="500.667" y="455.625" transform="matrix(-1 -1.224647e-16 1.224647e-16 -1 1012.3334 922.25)" style="fill:#23202C;" width="11" height="11"/>
			</g>
			<g>
				
					<rect x="637.333" y="477.625" transform="matrix(-1 -1.224647e-16 1.224647e-16 -1 1285.6666 966.25)" style="fill:#686084;" width="11" height="11"/>
				
					<rect x="648.333" y="488.625" transform="matrix(-1 -1.224647e-16 1.224647e-16 -1 1307.6666 988.25)" style="fill:#8B7FB0;" width="11" height="11"/>
				
					<rect x="659.333" y="499.625" transform="matrix(-1 -1.224647e-16 1.224647e-16 -1 1329.6666 1010.25)" style="fill:#A299C0;" width="11" height="11"/>
				
					<rect x="670" y="510.625" transform="matrix(-1 -1.224647e-16 1.224647e-16 -1 1351 1032.25)" style="fill:#B9B2D0;" width="11" height="11"/>
				
					<rect x="626.333" y="466.625" transform="matrix(-1 -1.224647e-16 1.224647e-16 -1 1263.6666 944.25)" style="fill:#454058;" width="11" height="11"/>
				
					<rect x="615.333" y="455.625" transform="matrix(-1 -1.224647e-16 1.224647e-16 -1 1241.6666 922.25)" style="fill:#23202C;" width="11" height="11"/>
			</g>
			<g>
				
					<rect x="254.833" y="216.5" transform="matrix(-1 -1.224647e-16 1.224647e-16 -1 520.6666 444)" style="fill:#686084;" width="11" height="11"/>
				
					<rect x="265.833" y="227.5" transform="matrix(-1 -1.224647e-16 1.224647e-16 -1 542.6666 466)" style="fill:#8B7FB0;" width="11" height="11"/>
				
					<rect x="276.833" y="238.5" transform="matrix(-1 -1.224647e-16 1.224647e-16 -1 564.6666 488)" style="fill:#A299C0;" width="11" height="11"/>
				
					<rect x="287.5" y="249.5" transform="matrix(-1 -1.224647e-16 1.224647e-16 -1 586 510)" style="fill:#B9B2D0;" width="11" height="11"/>
				
					<rect x="243.833" y="205.5" transform="matrix(-1 -1.224647e-16 1.224647e-16 -1 498.6666 422)" style="fill:#454058;" width="11" height="11"/>
				
					<rect x="232.833" y="194.5" transform="matrix(-1 -1.224647e-16 1.224647e-16 -1 476.6666 400)" style="fill:#23202C;" width="11" height="11"/>
			</g>
			<g>
				
					<rect x="59" y="230.625" transform="matrix(-1 -1.224647e-16 1.224647e-16 -1 129 472.25)" style="fill:#686084;" width="11" height="11"/>
				
					<rect x="70" y="241.625" transform="matrix(-1 -1.224647e-16 1.224647e-16 -1 151 494.25)" style="fill:#8B7FB0;" width="11" height="11"/>
				
					<rect x="81" y="252.625" transform="matrix(-1 -1.224647e-16 1.224647e-16 -1 173 516.25)" style="fill:#A299C0;" width="11" height="11"/>
				
					<rect x="91.667" y="263.625" transform="matrix(-1 -1.224647e-16 1.224647e-16 -1 194.3334 538.25)" style="fill:#B9B2D0;" width="11" height="11"/>
				
					<rect x="48" y="219.625" transform="matrix(-1 -1.224647e-16 1.224647e-16 -1 107 450.25)" style="fill:#454058;" width="11" height="11"/>
				
					<rect x="37" y="208.625" transform="matrix(-1 -1.224647e-16 1.224647e-16 -1 85 428.25)" style="fill:#23202C;" width="11" height="11"/>
			</g>
			<g>
				
					<rect x="233" y="351.125" transform="matrix(-1 -1.224647e-16 1.224647e-16 -1 477 713.25)" style="fill:#686084;" width="11" height="11"/>
				
					<rect x="244" y="362.125" transform="matrix(-1 -1.224647e-16 1.224647e-16 -1 499 735.25)" style="fill:#8B7FB0;" width="11" height="11"/>
				
					<rect x="255" y="373.125" transform="matrix(-1 -1.224647e-16 1.224647e-16 -1 521 757.25)" style="fill:#A299C0;" width="11" height="11"/>
				
					<rect x="265.667" y="384.125" transform="matrix(-1 -1.224647e-16 1.224647e-16 -1 542.3334 779.25)" style="fill:#FC4F32;" width="11" height="11"/>
				
					<rect x="222" y="340.125" transform="matrix(-1 -1.224647e-16 1.224647e-16 -1 455 691.25)" style="fill:#454058;" width="11" height="11"/>
				
					<rect x="211" y="329.125" transform="matrix(-1 -1.224647e-16 1.224647e-16 -1 433 669.25)" style="fill:#23202C;" width="11" height="11"/>
			</g>
			<g>
				
					<rect x="211.167" y="258.125" transform="matrix(-1 -1.224647e-16 1.224647e-16 -1 433.3334 527.25)" style="fill:#686084;" width="11" height="11"/>
				
					<rect x="222.167" y="269.125" transform="matrix(-1 -1.224647e-16 1.224647e-16 -1 455.3334 549.25)" style="fill:#8B7FB0;" width="11" height="11"/>
				
					<rect x="233.167" y="280.125" transform="matrix(-1 -1.224647e-16 1.224647e-16 -1 477.3334 571.25)" style="fill:#A299C0;" width="11" height="11"/>
				
					<rect x="243.833" y="291.125" transform="matrix(-1 -1.224647e-16 1.224647e-16 -1 498.6666 593.25)" style="fill:#B9B2D0;" width="11" height="11"/>
				
					<rect x="200.167" y="247.125" transform="matrix(-1 -1.224647e-16 1.224647e-16 -1 411.3334 505.25)" style="fill:#454058;" width="11" height="11"/>
				
					<rect x="189.167" y="236.125" transform="matrix(-1 -1.224647e-16 1.224647e-16 -1 389.3334 483.25)" style="fill:#23202C;" width="11" height="11"/>
			</g>
			<g>
				
					<rect x="167.5" y="342.625" transform="matrix(-1 -1.224647e-16 1.224647e-16 -1 346 696.25)" style="fill:#686084;" width="11" height="11"/>
				
					<rect x="178.5" y="353.625" transform="matrix(-1 -1.224647e-16 1.224647e-16 -1 368 718.25)" style="fill:#8B7FB0;" width="11" height="11"/>
				
					<rect x="189.5" y="364.625" transform="matrix(-1 -1.224647e-16 1.224647e-16 -1 390 740.25)" style="fill:#A299C0;" width="11" height="11"/>
				
					<rect x="200.167" y="375.625" transform="matrix(-1 -1.224647e-16 1.224647e-16 -1 411.3334 762.25)" style="fill:#B9B2D0;" width="11" height="11"/>
				
					<rect x="156.5" y="331.625" transform="matrix(-1 -1.224647e-16 1.224647e-16 -1 324 674.25)" style="fill:#454058;" width="11" height="11"/>
				
					<rect x="145.5" y="320.625" transform="matrix(-1 -1.224647e-16 1.224647e-16 -1 302 652.25)" style="fill:#23202C;" width="11" height="11"/>
			</g>
			<g>
				
					<rect x="146" y="386.625" transform="matrix(-1 -1.224647e-16 1.224647e-16 -1 303 784.25)" style="fill:#686084;" width="11" height="11"/>
				
					<rect x="157" y="397.625" transform="matrix(-1 -1.224647e-16 1.224647e-16 -1 325 806.25)" style="fill:#8B7FB0;" width="11" height="11"/>
				
					<rect x="168" y="408.625" transform="matrix(-1 -1.224647e-16 1.224647e-16 -1 347 828.25)" style="fill:#A299C0;" width="11" height="11"/>
				
					<rect x="178.667" y="419.625" transform="matrix(-1 -1.224647e-16 1.224647e-16 -1 368.3334 850.25)" style="fill:#B9B2D0;" width="11" height="11"/>
				
					<rect x="135" y="375.625" transform="matrix(-1 -1.224647e-16 1.224647e-16 -1 281 762.25)" style="fill:#454058;" width="11" height="11"/>
				
					<rect x="124" y="364.625" transform="matrix(-1 -1.224647e-16 1.224647e-16 -1 259 740.25)" style="fill:#23202C;" width="11" height="11"/>
			</g>
			<g>
				
					<rect x="15" y="378.625" transform="matrix(-1 -1.224647e-16 1.224647e-16 -1 41 768.25)" style="fill:#686084;" width="11" height="11"/>
				
					<rect x="26" y="389.625" transform="matrix(-1 -1.224647e-16 1.224647e-16 -1 63 790.25)" style="fill:#8B7FB0;" width="11" height="11"/>
				
					<rect x="37" y="400.625" transform="matrix(-1 -1.224647e-16 1.224647e-16 -1 85 812.25)" style="fill:#A299C0;" width="11" height="11"/>
				
					<rect x="47.667" y="411.625" transform="matrix(-1 -1.224647e-16 1.224647e-16 -1 106.3334 834.25)" style="fill:#B9B2D0;" width="11" height="11"/>
				
					<rect x="4" y="367.625" transform="matrix(-1 -1.224647e-16 1.224647e-16 -1 19 746.25)" style="fill:#454058;" width="11" height="11"/>
				
					<rect x="-7" y="356.625" transform="matrix(-1 -1.224647e-16 1.224647e-16 -1 -3 724.25)" style="fill:#23202C;" width="11" height="11"/>
			</g>
			<g>
				
					<rect x="85.333" y="395.125" transform="matrix(-1 -1.224647e-16 1.224647e-16 -1 181.6666 801.25)" style="fill:#686084;" width="11" height="11"/>
				
					<rect x="96.333" y="406.125" transform="matrix(-1 -1.224647e-16 1.224647e-16 -1 203.6666 823.25)" style="fill:#8B7FB0;" width="11" height="11"/>
				
					<rect x="107.333" y="417.125" transform="matrix(-1 -1.224647e-16 1.224647e-16 -1 225.6666 845.25)" style="fill:#A299C0;" width="11" height="11"/>
				
					<rect x="118" y="428.125" transform="matrix(-1 -1.224647e-16 1.224647e-16 -1 247 867.25)" style="fill:#FC4F32;" width="11" height="11"/>
				
					<rect x="74.333" y="384.125" transform="matrix(-1 -1.224647e-16 1.224647e-16 -1 159.6666 779.25)" style="fill:#454058;" width="11" height="11"/>
				
					<rect x="63.333" y="373.125" transform="matrix(-1 -1.224647e-16 1.224647e-16 -1 137.6666 757.25)" style="fill:#23202C;" width="11" height="11"/>
			</g>
			<g>
				
					<rect x="-10.833" y="287.625" transform="matrix(-1 -1.224647e-16 1.224647e-16 -1 -10.6666 586.25)" style="fill:#686084;" width="11" height="11"/>
				
					<rect x="0.167" y="298.625" transform="matrix(-1 -1.224647e-16 1.224647e-16 -1 11.3334 608.25)" style="fill:#8B7FB0;" width="11" height="11"/>
				
					<rect x="11.167" y="309.625" transform="matrix(-1 -1.224647e-16 1.224647e-16 -1 33.3334 630.25)" style="fill:#A299C0;" width="11" height="11"/>
				
					<rect x="21.833" y="320.625" transform="matrix(-1 -1.224647e-16 1.224647e-16 -1 54.6666 652.25)" style="fill:#FC4F32;" width="11" height="11"/>
				
					<rect x="-21.833" y="276.625" transform="matrix(-1 -1.224647e-16 1.224647e-16 -1 -32.6666 564.25)" style="fill:#454058;" width="11" height="11"/>
				
					<rect x="-32.833" y="265.625" transform="matrix(-1 -1.224647e-16 1.224647e-16 -1 -54.6666 542.25)" style="fill:#23202C;" width="11" height="11"/>
			</g>
			<g>
				
					<rect x="58.5" y="296.5" transform="matrix(-1 -1.224647e-16 1.224647e-16 -1 128 604)" style="fill:#686084;" width="11" height="11"/>
				
					<rect x="69.5" y="307.5" transform="matrix(-1 -1.224647e-16 1.224647e-16 -1 150 626)" style="fill:#8B7FB0;" width="11" height="11"/>
				
					<rect x="80.5" y="318.5" transform="matrix(-1 -1.224647e-16 1.224647e-16 -1 172 648)" style="fill:#A299C0;" width="11" height="11"/>
				
					<rect x="91.167" y="329.5" transform="matrix(-1 -1.224647e-16 1.224647e-16 -1 193.3334 670)" style="fill:#B9B2D0;" width="11" height="11"/>
				
					<rect x="47.5" y="285.5" transform="matrix(-1 -1.224647e-16 1.224647e-16 -1 106 582)" style="fill:#454058;" width="11" height="11"/>
				
					<rect x="36.5" y="274.5" transform="matrix(-1 -1.224647e-16 1.224647e-16 -1 84 560)" style="fill:#23202C;" width="11" height="11"/>
			</g>
			<g>
				
					<rect x="-27.167" y="200" transform="matrix(-1 -1.224647e-16 1.224647e-16 -1 -43.3334 411)" style="fill:#686084;" width="11" height="11"/>
				
					<rect x="-16.167" y="211" transform="matrix(-1 -1.224647e-16 1.224647e-16 -1 -21.3334 433)" style="fill:#8B7FB0;" width="11" height="11"/>
				
					<rect x="-5.167" y="222" transform="matrix(-1 -1.224647e-16 1.224647e-16 -1 0.6667 455)" style="fill:#A299C0;" width="11" height="11"/>
				
					<rect x="5.5" y="233" transform="matrix(-1 -1.224647e-16 1.224647e-16 -1 22 477)" style="fill:#B9B2D0;" width="11" height="11"/>
				
					<rect x="-38.167" y="189" transform="matrix(-1 -1.224647e-16 1.224647e-16 -1 -65.3334 389)" style="fill:#454058;" width="11" height="11"/>
				
					<rect x="-49.167" y="178" transform="matrix(-1 -1.224647e-16 1.224647e-16 -1 -87.3334 367)" style="fill:#23202C;" width="11" height="11"/>
			</g>
			<g>
				
					<rect x="145.833" y="252.208" transform="matrix(-1 -1.224647e-16 1.224647e-16 -1 302.6666 515.4166)" style="fill:#686084;" width="11" height="11"/>
				
					<rect x="156.833" y="263.208" transform="matrix(-1 -1.224647e-16 1.224647e-16 -1 324.6666 537.4166)" style="fill:#8B7FB0;" width="11" height="11"/>
				
					<rect x="167.833" y="274.208" transform="matrix(-1 -1.224647e-16 1.224647e-16 -1 346.6666 559.4166)" style="fill:#A299C0;" width="11" height="11"/>
				
					<rect x="178.5" y="285.208" transform="matrix(-1 -1.224647e-16 1.224647e-16 -1 368 581.4166)" style="fill:#B9B2D0;" width="11" height="11"/>
				
					<rect x="134.833" y="241.208" transform="matrix(-1 -1.224647e-16 1.224647e-16 -1 280.6666 493.4166)" style="fill:#454058;" width="11" height="11"/>
				
					<rect x="123.833" y="230.208" transform="matrix(-1 -1.224647e-16 1.224647e-16 -1 258.6666 471.4166)" style="fill:#23202C;" width="11" height="11"/>
			</g>
			<g>
				
					<rect x="348" y="276.625" transform="matrix(-1 -1.224647e-16 1.224647e-16 -1 707 564.25)" style="fill:#686084;" width="11" height="11"/>
				
					<rect x="359" y="287.625" transform="matrix(-1 -1.224647e-16 1.224647e-16 -1 729 586.25)" style="fill:#8B7FB0;" width="11" height="11"/>
				
					<rect x="370" y="298.625" transform="matrix(-1 -1.224647e-16 1.224647e-16 -1 751 608.25)" style="fill:#A299C0;" width="11" height="11"/>
				
					<rect x="380.667" y="309.625" transform="matrix(-1 -1.224647e-16 1.224647e-16 -1 772.3334 630.25)" style="fill:#FC4F32;" width="11" height="11"/>
				
					<rect x="337" y="265.625" transform="matrix(-1 -1.224647e-16 1.224647e-16 -1 685 542.25)" style="fill:#454058;" width="11" height="11"/>
				
					<rect x="326" y="254.625" transform="matrix(-1 -1.224647e-16 1.224647e-16 -1 663 520.25)" style="fill:#23202C;" width="11" height="11"/>
			</g>
			<g>
				
					<rect x="724.667" y="389.625" transform="matrix(-1 -1.224647e-16 1.224647e-16 -1 1460.3334 790.25)" style="fill:#686084;" width="11" height="11"/>
				
					<rect x="735.667" y="400.625" transform="matrix(-1 -1.224647e-16 1.224647e-16 -1 1482.3334 812.25)" style="fill:#8B7FB0;" width="11" height="11"/>
				
					<rect x="746.667" y="411.625" transform="matrix(-1 -1.224647e-16 1.224647e-16 -1 1504.3334 834.25)" style="fill:#A299C0;" width="11" height="11"/>
				
					<rect x="757.333" y="422.625" transform="matrix(-1 -1.224647e-16 1.224647e-16 -1 1525.6665 856.25)" style="fill:#B9B2D0;" width="11" height="11"/>
				
					<rect x="713.667" y="378.625" transform="matrix(-1 -1.224647e-16 1.224647e-16 -1 1438.3334 768.25)" style="fill:#454058;" width="11" height="11"/>
				
					<rect x="702.667" y="367.625" transform="matrix(-1 -1.224647e-16 1.224647e-16 -1 1416.3334 746.25)" style="fill:#23202C;" width="11" height="11"/>
			</g>
			<g>
				
					<rect x="694.125" y="307.5" transform="matrix(-1 -1.224647e-16 1.224647e-16 -1 1399.25 626)" style="fill:#686084;" width="11" height="11"/>
				
					<rect x="705.125" y="318.5" transform="matrix(-1 -1.224647e-16 1.224647e-16 -1 1421.25 648)" style="fill:#8B7FB0;" width="11" height="11"/>
				
					<rect x="716.125" y="329.5" transform="matrix(-1 -1.224647e-16 1.224647e-16 -1 1443.25 670)" style="fill:#A299C0;" width="11" height="11"/>
				
					<rect x="726.792" y="340.5" transform="matrix(-1 -1.224647e-16 1.224647e-16 -1 1464.5834 692)" style="fill:#B9B2D0;" width="11" height="11"/>
				
					<rect x="683.125" y="296.5" transform="matrix(-1 -1.224647e-16 1.224647e-16 -1 1377.25 604)" style="fill:#454058;" width="11" height="11"/>
				
					<rect x="672.125" y="285.5" transform="matrix(-1 -1.224647e-16 1.224647e-16 -1 1355.25 582)" style="fill:#23202C;" width="11" height="11"/>
			</g>
			<g>
				
					<rect x="642.667" y="216.5" transform="matrix(-1 -1.224647e-16 1.224647e-16 -1 1296.3334 444)" style="fill:#686084;" width="11" height="11"/>
				
					<rect x="653.667" y="227.5" transform="matrix(-1 -1.224647e-16 1.224647e-16 -1 1318.3334 466)" style="fill:#8B7FB0;" width="11" height="11"/>
				
					<rect x="664.667" y="238.5" transform="matrix(-1 -1.224647e-16 1.224647e-16 -1 1340.3334 488)" style="fill:#A299C0;" width="11" height="11"/>
				
					<rect x="675.333" y="249.5" transform="matrix(-1 -1.224647e-16 1.224647e-16 -1 1361.6666 510)" style="fill:#B9B2D0;" width="11" height="11"/>
				
					<rect x="631.667" y="205.5" transform="matrix(-1 -1.224647e-16 1.224647e-16 -1 1274.3334 422)" style="fill:#454058;" width="11" height="11"/>
				
					<rect x="620.667" y="194.5" transform="matrix(-1 -1.224647e-16 1.224647e-16 -1 1252.3334 400)" style="fill:#23202C;" width="11" height="11"/>
			</g>
			<g>
				
					<rect x="715.958" y="214.125" transform="matrix(-1 -1.224647e-16 1.224647e-16 -1 1442.9165 439.25)" style="fill:#686084;" width="11" height="11"/>
				
					<rect x="726.958" y="225.125" transform="matrix(-1 -1.224647e-16 1.224647e-16 -1 1464.9165 461.25)" style="fill:#8B7FB0;" width="11" height="11"/>
				
					<rect x="737.958" y="236.125" transform="matrix(-1 -1.224647e-16 1.224647e-16 -1 1486.9165 483.25)" style="fill:#A299C0;" width="11" height="11"/>
				
					<rect x="748.625" y="247.125" transform="matrix(-1 -1.224647e-16 1.224647e-16 -1 1508.25 505.25)" style="fill:#B9B2D0;" width="11" height="11"/>
				
					<rect x="704.958" y="203.125" transform="matrix(-1 -1.224647e-16 1.224647e-16 -1 1420.9165 417.25)" style="fill:#454058;" width="11" height="11"/>
				
					<rect x="693.958" y="192.125" transform="matrix(-1 -1.224647e-16 1.224647e-16 -1 1398.9165 395.25)" style="fill:#23202C;" width="11" height="11"/>
			</g>
			<g>
				
					<rect x="446.833" y="230.625" transform="matrix(-1 -1.224647e-16 1.224647e-16 -1 904.6666 472.25)" style="fill:#686084;" width="11" height="11"/>
				
					<rect x="457.833" y="241.625" transform="matrix(-1 -1.224647e-16 1.224647e-16 -1 926.6666 494.25)" style="fill:#8B7FB0;" width="11" height="11"/>
				
					<rect x="468.833" y="252.625" transform="matrix(-1 -1.224647e-16 1.224647e-16 -1 948.6666 516.25)" style="fill:#A299C0;" width="11" height="11"/>
				
					<rect x="479.5" y="263.625" transform="matrix(-1 -1.224647e-16 1.224647e-16 -1 970 538.25)" style="fill:#B9B2D0;" width="11" height="11"/>
				
					<rect x="435.833" y="219.625" transform="matrix(-1 -1.224647e-16 1.224647e-16 -1 882.6666 450.25)" style="fill:#454058;" width="11" height="11"/>
				
					<rect x="424.833" y="208.625" transform="matrix(-1 -1.224647e-16 1.224647e-16 -1 860.6666 428.25)" style="fill:#23202C;" width="11" height="11"/>
			</g>
			<g>
				
					<rect x="637.5" y="351.125" transform="matrix(-1 -1.224647e-16 1.224647e-16 -1 1286 713.25)" style="fill:#686084;" width="11" height="11"/>
				
					<rect x="648.5" y="362.125" transform="matrix(-1 -1.224647e-16 1.224647e-16 -1 1308 735.25)" style="fill:#8B7FB0;" width="11" height="11"/>
				
					<rect x="659.5" y="373.125" transform="matrix(-1 -1.224647e-16 1.224647e-16 -1 1330 757.25)" style="fill:#A299C0;" width="11" height="11"/>
				
					<rect x="670.167" y="384.125" transform="matrix(-1 -1.224647e-16 1.224647e-16 -1 1351.3334 779.25)" style="fill:#B9B2D0;" width="11" height="11"/>
				
					<rect x="626.5" y="340.125" transform="matrix(-1 -1.224647e-16 1.224647e-16 -1 1264 691.25)" style="fill:#454058;" width="11" height="11"/>
				
					<rect x="615.5" y="329.125" transform="matrix(-1 -1.224647e-16 1.224647e-16 -1 1242 669.25)" style="fill:#23202C;" width="11" height="11"/>
			</g>
			<g>
				
					<rect x="577.5" y="247.125" transform="matrix(-1 -1.224647e-16 1.224647e-16 -1 1166 505.25)" style="fill:#686084;" width="11" height="11"/>
				
					<rect x="588.5" y="258.125" transform="matrix(-1 -1.224647e-16 1.224647e-16 -1 1188 527.25)" style="fill:#8B7FB0;" width="11" height="11"/>
				
					<rect x="599.5" y="269.125" transform="matrix(-1 -1.224647e-16 1.224647e-16 -1 1210 549.25)" style="fill:#A299C0;" width="11" height="11"/>
				
					<rect x="610.167" y="280.125" transform="matrix(-1 -1.224647e-16 1.224647e-16 -1 1231.3334 571.25)" style="fill:#FC4F32;" width="11" height="11"/>
				
					<rect x="566.5" y="236.125" transform="matrix(-1 -1.224647e-16 1.224647e-16 -1 1144 483.25)" style="fill:#454058;" width="11" height="11"/>
				
					<rect x="555.5" y="225.125" transform="matrix(-1 -1.224647e-16 1.224647e-16 -1 1122 461.25)" style="fill:#23202C;" width="11" height="11"/>
			</g>
			<g>
				
					<rect x="582.667" y="359.125" transform="matrix(-1 -1.224647e-16 1.224647e-16 -1 1176.3334 729.25)" style="fill:#686084;" width="11" height="11"/>
				
					<rect x="593.667" y="370.125" transform="matrix(-1 -1.224647e-16 1.224647e-16 -1 1198.3334 751.25)" style="fill:#8B7FB0;" width="11" height="11"/>
				
					<rect x="604.667" y="381.125" transform="matrix(-1 -1.224647e-16 1.224647e-16 -1 1220.3334 773.25)" style="fill:#A299C0;" width="11" height="11"/>
				
					<rect x="615.333" y="392.125" transform="matrix(-1 -1.224647e-16 1.224647e-16 -1 1241.6666 795.25)" style="fill:#B9B2D0;" width="11" height="11"/>
				
					<rect x="571.667" y="348.125" transform="matrix(-1 -1.224647e-16 1.224647e-16 -1 1154.3334 707.25)" style="fill:#454058;" width="11" height="11"/>
				
					<rect x="560.667" y="337.125" transform="matrix(-1 -1.224647e-16 1.224647e-16 -1 1132.3334 685.25)" style="fill:#23202C;" width="11" height="11"/>
			</g>
			<g>
				
					<rect x="539" y="384.125" transform="matrix(-1 -1.224647e-16 1.224647e-16 -1 1089 779.25)" style="fill:#686084;" width="11" height="11"/>
				
					<rect x="550" y="395.125" transform="matrix(-1 -1.224647e-16 1.224647e-16 -1 1111 801.25)" style="fill:#8B7FB0;" width="11" height="11"/>
				
					<rect x="561" y="406.125" transform="matrix(-1 -1.224647e-16 1.224647e-16 -1 1133 823.25)" style="fill:#A299C0;" width="11" height="11"/>
				
					<rect x="571.667" y="417.125" transform="matrix(-1 -1.224647e-16 1.224647e-16 -1 1154.3334 845.25)" style="fill:#FC4F32;" width="11" height="11"/>
				
					<rect x="528" y="373.125" transform="matrix(-1 -1.224647e-16 1.224647e-16 -1 1067 757.25)" style="fill:#454058;" width="11" height="11"/>
				
					<rect x="517" y="362.125" transform="matrix(-1 -1.224647e-16 1.224647e-16 -1 1045 735.25)" style="fill:#23202C;" width="11" height="11"/>
			</g>
			<g>
				
					<rect x="402.833" y="378.625" transform="matrix(-1 -1.224647e-16 1.224647e-16 -1 816.6666 768.25)" style="fill:#686084;" width="11" height="11"/>
				
					<rect x="413.833" y="389.625" transform="matrix(-1 -1.224647e-16 1.224647e-16 -1 838.6666 790.25)" style="fill:#8B7FB0;" width="11" height="11"/>
				
					<rect x="424.833" y="400.625" transform="matrix(-1 -1.224647e-16 1.224647e-16 -1 860.6666 812.25)" style="fill:#A299C0;" width="11" height="11"/>
				
					<rect x="435.5" y="411.625" transform="matrix(-1 -1.224647e-16 1.224647e-16 -1 882 834.25)" style="fill:#B9B2D0;" width="11" height="11"/>
				
					<rect x="391.833" y="367.625" transform="matrix(-1 -1.224647e-16 1.224647e-16 -1 794.6666 746.25)" style="fill:#454058;" width="11" height="11"/>
				
					<rect x="380.833" y="356.625" transform="matrix(-1 -1.224647e-16 1.224647e-16 -1 772.6666 724.25)" style="fill:#23202C;" width="11" height="11"/>
			</g>
			<g>
				
					<rect x="467.833" y="378.625" transform="matrix(-1 -1.224647e-16 1.224647e-16 -1 946.6666 768.25)" style="fill:#686084;" width="11" height="11"/>
				
					<rect x="478.833" y="389.625" transform="matrix(-1 -1.224647e-16 1.224647e-16 -1 968.6666 790.25)" style="fill:#8B7FB0;" width="11" height="11"/>
				
					<rect x="489.833" y="400.625" transform="matrix(-1 -1.224647e-16 1.224647e-16 -1 990.6666 812.25)" style="fill:#A299C0;" width="11" height="11"/>
				
					<rect x="500.5" y="411.625" transform="matrix(-1 -1.224647e-16 1.224647e-16 -1 1012 834.25)" style="fill:#B9B2D0;" width="11" height="11"/>
				
					<rect x="456.833" y="367.625" transform="matrix(-1 -1.224647e-16 1.224647e-16 -1 924.6666 746.25)" style="fill:#454058;" width="11" height="11"/>
				
					<rect x="445.833" y="356.625" transform="matrix(-1 -1.224647e-16 1.224647e-16 -1 902.6666 724.25)" style="fill:#23202C;" width="11" height="11"/>
			</g>
			<g>
				
					<rect x="353.667" y="230.625" transform="matrix(-1 -1.224647e-16 1.224647e-16 -1 718.3334 472.25)" style="fill:#686084;" width="11" height="11"/>
				
					<rect x="364.667" y="241.625" transform="matrix(-1 -1.224647e-16 1.224647e-16 -1 740.3334 494.25)" style="fill:#8B7FB0;" width="11" height="11"/>
				
					<rect x="375.667" y="252.625" transform="matrix(-1 -1.224647e-16 1.224647e-16 -1 762.3334 516.25)" style="fill:#A299C0;" width="11" height="11"/>
				
					<rect x="386.333" y="263.625" transform="matrix(-1 -1.224647e-16 1.224647e-16 -1 783.6666 538.25)" style="fill:#B9B2D0;" width="11" height="11"/>
				
					<rect x="342.667" y="219.625" transform="matrix(-1 -1.224647e-16 1.224647e-16 -1 696.3334 450.25)" style="fill:#454058;" width="11" height="11"/>
				
					<rect x="331.667" y="208.625" transform="matrix(-1 -1.224647e-16 1.224647e-16 -1 674.3334 428.25)" style="fill:#23202C;" width="11" height="11"/>
			</g>
			<g>
				
					<rect x="446.333" y="296.5" transform="matrix(-1 -1.224647e-16 1.224647e-16 -1 903.6666 604)" style="fill:#686084;" width="11" height="11"/>
				
					<rect x="457.333" y="307.5" transform="matrix(-1 -1.224647e-16 1.224647e-16 -1 925.6666 626)" style="fill:#8B7FB0;" width="11" height="11"/>
				
					<rect x="468.333" y="318.5" transform="matrix(-1 -1.224647e-16 1.224647e-16 -1 947.6666 648)" style="fill:#A299C0;" width="11" height="11"/>
				
					<rect x="479" y="329.5" transform="matrix(-1 -1.224647e-16 1.224647e-16 -1 969 670)" style="fill:#B9B2D0;" width="11" height="11"/>
				
					<rect x="435.333" y="285.5" transform="matrix(-1 -1.224647e-16 1.224647e-16 -1 881.6666 582)" style="fill:#454058;" width="11" height="11"/>
				
					<rect x="424.333" y="274.5" transform="matrix(-1 -1.224647e-16 1.224647e-16 -1 859.6666 560)" style="fill:#23202C;" width="11" height="11"/>
			</g>
			<g>
				
					<rect x="528" y="258.125" transform="matrix(-1 -1.224647e-16 1.224647e-16 -1 1067 527.25)" style="fill:#686084;" width="11" height="11"/>
				
					<rect x="539" y="269.125" transform="matrix(-1 -1.224647e-16 1.224647e-16 -1 1089 549.25)" style="fill:#8B7FB0;" width="11" height="11"/>
				
					<rect x="550" y="280.125" transform="matrix(-1 -1.224647e-16 1.224647e-16 -1 1111 571.25)" style="fill:#A299C0;" width="11" height="11"/>
				
					<rect x="560.667" y="291.125" transform="matrix(-1 -1.224647e-16 1.224647e-16 -1 1132.3334 593.25)" style="fill:#B9B2D0;" width="11" height="11"/>
				
					<rect x="517" y="247.125" transform="matrix(-1 -1.224647e-16 1.224647e-16 -1 1045 505.25)" style="fill:#454058;" width="11" height="11"/>
				
					<rect x="506" y="236.125" transform="matrix(-1 -1.224647e-16 1.224647e-16 -1 1023 483.25)" style="fill:#23202C;" width="11" height="11"/>
			</g>
			<g>
				
					<rect x="735.833" y="276.625" transform="matrix(-1 -1.224647e-16 1.224647e-16 -1 1482.6665 564.25)" style="fill:#686084;" width="11" height="11"/>
				
					<rect x="746.833" y="287.625" transform="matrix(-1 -1.224647e-16 1.224647e-16 -1 1504.6665 586.25)" style="fill:#8B7FB0;" width="11" height="11"/>
				
					<rect x="757.833" y="298.625" transform="matrix(-1 -1.224647e-16 1.224647e-16 -1 1526.6665 608.25)" style="fill:#A299C0;" width="11" height="11"/>
				
					<rect x="768.5" y="309.625" transform="matrix(-1 -1.224647e-16 1.224647e-16 -1 1548 630.25)" style="fill:#B9B2D0;" width="11" height="11"/>
				
					<rect x="724.833" y="265.625" transform="matrix(-1 -1.224647e-16 1.224647e-16 -1 1460.6665 542.25)" style="fill:#454058;" width="11" height="11"/>
				
					<rect x="713.833" y="254.625" transform="matrix(-1 -1.224647e-16 1.224647e-16 -1 1438.6665 520.25)" style="fill:#23202C;" width="11" height="11"/>
			</g>
		</g>
	</g>
</g>
</svg>
